<?xml version="1.0" encoding="windows-1252" standalone="no"?>
<svg xmlns="http://www.w3.org/2000/svg" xmlns:xlink="http://www.w3.org/1999/xlink" contentStyleType="text/css" height="1591px" preserveAspectRatio="none" style="width:1805px;height:1591px;background:#FFFFFF;" version="1.1" viewBox="0 0 1805 1591" width="1805px" zoomAndPan="magnify"><defs/><g><rect fill="#DDDDDD" height="1579.7031" style="stroke:#181818;stroke-width:0.5;" width="694.5" x="1" y="6"/><text fill="#000000" font-family="sans-serif" font-size="13" font-weight="bold" lengthAdjust="spacing" textLength="110" x="293.25" y="18.0669">Payee's Wallet</text><rect fill="#DDDDDD" height="1579.7031" style="stroke:#181818;stroke-width:0.5;" width="646.5" x="1152.5" y="6"/><text fill="#000000" font-family="sans-serif" font-size="13" font-weight="bold" lengthAdjust="spacing" textLength="108" x="1421.75" y="18.0669">Payer's Wallet</text><line style="stroke:#181818;stroke-width:0.5;stroke-dasharray:5.0,5.0;" x1="70" x2="70" y1="81.2969" y2="1506.4063"/><line style="stroke:#181818;stroke-width:0.5;stroke-dasharray:5.0,5.0;" x1="330" x2="330" y1="81.2969" y2="1506.4063"/><line style="stroke:#181818;stroke-width:0.5;stroke-dasharray:5.0,5.0;" x1="536.5" x2="536.5" y1="81.2969" y2="1506.4063"/><line style="stroke:#181818;stroke-width:0.5;stroke-dasharray:5.0,5.0;" x1="677.5" x2="677.5" y1="81.2969" y2="1506.4063"/><line style="stroke:#181818;stroke-width:0.5;stroke-dasharray:5.0,5.0;" x1="893.5" x2="893.5" y1="81.2969" y2="1506.4063"/><line style="stroke:#181818;stroke-width:0.5;stroke-dasharray:5.0,5.0;" x1="1003" x2="1003" y1="81.2969" y2="1506.4063"/><line style="stroke:#181818;stroke-width:0.5;stroke-dasharray:5.0,5.0;" x1="1169.5" x2="1169.5" y1="81.2969" y2="1506.4063"/><line style="stroke:#181818;stroke-width:0.5;stroke-dasharray:5.0,5.0;" x1="1336.5" x2="1336.5" y1="81.2969" y2="1506.4063"/><line style="stroke:#181818;stroke-width:0.5;stroke-dasharray:5.0,5.0;" x1="1612" x2="1612" y1="81.2969" y2="1506.4063"/><line style="stroke:#181818;stroke-width:0.5;stroke-dasharray:5.0,5.0;" x1="1730" x2="1730" y1="81.2969" y2="1506.4063"/><rect fill="#E2E2F0" height="30.2969" rx="2.5" ry="2.5" style="stroke:#181818;stroke-width:0.5;" width="130" x="5" y="50"/><text fill="#000000" font-family="sans-serif" font-size="14" lengthAdjust="spacing" textLength="116" x="12" y="69.9951">Electrum Server</text><rect fill="#E2E2F0" height="30.2969" rx="2.5" ry="2.5" style="stroke:#181818;stroke-width:0.5;" width="130" x="5" y="1505.4063"/><text fill="#000000" font-family="sans-serif" font-size="14" lengthAdjust="spacing" textLength="116" x="12" y="1525.4014">Electrum Server</text><rect fill="#E2E2F0" height="30.2969" rx="2.5" ry="2.5" style="stroke:#181818;stroke-width:0.5;" width="86" x="287" y="50"/><text fill="#000000" font-family="sans-serif" font-size="14" lengthAdjust="spacing" textLength="72" x="294" y="69.9951">RGB Node</text><rect fill="#E2E2F0" height="30.2969" rx="2.5" ry="2.5" style="stroke:#181818;stroke-width:0.5;" width="86" x="287" y="1505.4063"/><text fill="#000000" font-family="sans-serif" font-size="14" lengthAdjust="spacing" textLength="72" x="294" y="1525.4014">RGB Node</text><rect fill="#E2E2F0" height="30.2969" rx="2.5" ry="2.5" style="stroke:#181818;stroke-width:0.5;" width="135" x="469.5" y="50"/><text fill="#000000" font-family="sans-serif" font-size="14" lengthAdjust="spacing" textLength="121" x="476.5" y="69.9951">Wallet controller</text><rect fill="#E2E2F0" height="30.2969" rx="2.5" ry="2.5" style="stroke:#181818;stroke-width:0.5;" width="135" x="469.5" y="1505.4063"/><text fill="#000000" font-family="sans-serif" font-size="14" lengthAdjust="spacing" textLength="121" x="476.5" y="1525.4014">Wallet controller</text><rect fill="#E2E2F0" height="30.2969" rx="2.5" ry="2.5" style="stroke:#181818;stroke-width:0.5;" width="27" x="664.5" y="50"/><text fill="#000000" font-family="sans-serif" font-size="14" lengthAdjust="spacing" textLength="13" x="671.5" y="69.9951">UI</text><rect fill="#E2E2F0" height="30.2969" rx="2.5" ry="2.5" style="stroke:#181818;stroke-width:0.5;" width="27" x="664.5" y="1505.4063"/><text fill="#000000" font-family="sans-serif" font-size="14" lengthAdjust="spacing" textLength="13" x="671.5" y="1525.4014">UI</text><text fill="#000000" font-family="sans-serif" font-size="14" lengthAdjust="spacing" textLength="43" x="869.5" y="77.9951">Payee</text><ellipse cx="894" cy="13.5" fill="#E2E2F0" rx="8" ry="8" style="stroke:#181818;stroke-width:0.5;"/><path d="M894,21.5 L894,48.5 M881,29.5 L907,29.5 M894,48.5 L881,63.5 M894,48.5 L907,63.5 " fill="none" style="stroke:#181818;stroke-width:0.5;"/><text fill="#000000" font-family="sans-serif" font-size="14" lengthAdjust="spacing" textLength="43" x="869.5" y="1518.4014">Payee</text><ellipse cx="894" cy="1530.2031" fill="#E2E2F0" rx="8" ry="8" style="stroke:#181818;stroke-width:0.5;"/><path d="M894,1538.2031 L894,1565.2031 M881,1546.2031 L907,1546.2031 M894,1565.2031 L881,1580.2031 M894,1565.2031 L907,1580.2031 " fill="none" style="stroke:#181818;stroke-width:0.5;"/><text fill="#000000" font-family="sans-serif" font-size="14" lengthAdjust="spacing" textLength="40" x="980" y="77.9951">Payer</text><ellipse cx="1003" cy="13.5" fill="#E2E2F0" rx="8" ry="8" style="stroke:#181818;stroke-width:0.5;"/><path d="M1003,21.5 L1003,48.5 M990,29.5 L1016,29.5 M1003,48.5 L990,63.5 M1003,48.5 L1016,63.5 " fill="none" style="stroke:#181818;stroke-width:0.5;"/><text fill="#000000" font-family="sans-serif" font-size="14" lengthAdjust="spacing" textLength="40" x="980" y="1518.4014">Payer</text><ellipse cx="1003" cy="1530.2031" fill="#E2E2F0" rx="8" ry="8" style="stroke:#181818;stroke-width:0.5;"/><path d="M1003,1538.2031 L1003,1565.2031 M990,1546.2031 L1016,1546.2031 M1003,1565.2031 L990,1580.2031 M1003,1565.2031 L1016,1580.2031 " fill="none" style="stroke:#181818;stroke-width:0.5;"/><rect fill="#E2E2F0" height="30.2969" rx="2.5" ry="2.5" style="stroke:#181818;stroke-width:0.5;" width="27" x="1156.5" y="50"/><text fill="#000000" font-family="sans-serif" font-size="14" lengthAdjust="spacing" textLength="13" x="1163.5" y="69.9951">UI</text><rect fill="#E2E2F0" height="30.2969" rx="2.5" ry="2.5" style="stroke:#181818;stroke-width:0.5;" width="27" x="1156.5" y="1505.4063"/><text fill="#000000" font-family="sans-serif" font-size="14" lengthAdjust="spacing" textLength="13" x="1163.5" y="1525.4014">UI</text><rect fill="#E2E2F0" height="30.2969" rx="2.5" ry="2.5" style="stroke:#181818;stroke-width:0.5;" width="135" x="1269.5" y="50"/><text fill="#000000" font-family="sans-serif" font-size="14" lengthAdjust="spacing" textLength="121" x="1276.5" y="69.9951">Wallet controller</text><rect fill="#E2E2F0" height="30.2969" rx="2.5" ry="2.5" style="stroke:#181818;stroke-width:0.5;" width="135" x="1269.5" y="1505.4063"/><text fill="#000000" font-family="sans-serif" font-size="14" lengthAdjust="spacing" textLength="121" x="1276.5" y="1525.4014">Wallet controller</text><rect fill="#E2E2F0" height="30.2969" rx="2.5" ry="2.5" style="stroke:#181818;stroke-width:0.5;" width="86" x="1569" y="50"/><text fill="#000000" font-family="sans-serif" font-size="14" lengthAdjust="spacing" textLength="72" x="1576" y="69.9951">RGB Node</text><rect fill="#E2E2F0" height="30.2969" rx="2.5" ry="2.5" style="stroke:#181818;stroke-width:0.5;" width="86" x="1569" y="1505.4063"/><text fill="#000000" font-family="sans-serif" font-size="14" lengthAdjust="spacing" textLength="72" x="1576" y="1525.4014">RGB Node</text><rect fill="#E2E2F0" height="30.2969" rx="2.5" ry="2.5" style="stroke:#181818;stroke-width:0.5;" width="130" x="1665" y="50"/><text fill="#000000" font-family="sans-serif" font-size="14" lengthAdjust="spacing" textLength="116" x="1672" y="69.9951">Electrum Server</text><rect fill="#E2E2F0" height="30.2969" rx="2.5" ry="2.5" style="stroke:#181818;stroke-width:0.5;" width="130" x="1665" y="1505.4063"/><text fill="#000000" font-family="sans-serif" font-size="14" lengthAdjust="spacing" textLength="116" x="1672" y="1525.4014">Electrum Server</text><polygon fill="#181818" points="689,108.4297,679,112.4297,689,116.4297,685,112.4297" style="stroke:#181818;stroke-width:1.0;"/><line style="stroke:#181818;stroke-width:1.0;" x1="683" x2="893" y1="112.4297" y2="112.4297"/><text fill="#000000" font-family="sans-serif" font-size="13" lengthAdjust="spacing" textLength="90" x="695" y="107.3638">create invoice</text><polygon fill="#181818" points="548,137.5625,538,141.5625,548,145.5625,544,141.5625" style="stroke:#181818;stroke-width:1.0;"/><line style="stroke:#181818;stroke-width:1.0;" x1="542" x2="677" y1="141.5625" y2="141.5625"/><text fill="#000000" font-family="sans-serif" font-size="13" lengthAdjust="spacing" textLength="70" x="554" y="136.4966">get invoice</text><polygon fill="#181818" points="81,166.6953,71,170.6953,81,174.6953,77,170.6953" style="stroke:#181818;stroke-width:1.0;"/><line style="stroke:#181818;stroke-width:1.0;" x1="75" x2="536" y1="170.6953" y2="170.6953"/><text fill="#000000" font-family="sans-serif" font-size="13" lengthAdjust="spacing" textLength="129" x="87" y="165.6294">get available UTXOs</text><polygon fill="#181818" points="525,195.8281,535,199.8281,525,203.8281,529,199.8281" style="stroke:#181818;stroke-width:1.0;"/><line style="stroke:#181818;stroke-width:1.0;" x1="70" x2="531" y1="199.8281" y2="199.8281"/><text fill="#000000" font-family="sans-serif" font-size="13" lengthAdjust="spacing" textLength="58" x="77" y="194.7622">UTXO list</text><polygon fill="#181818" points="341,224.9609,331,228.9609,341,232.9609,337,228.9609" style="stroke:#181818;stroke-width:1.0;"/><line style="stroke:#181818;stroke-width:1.0;" x1="335" x2="536" y1="228.9609" y2="228.9609"/><text fill="#000000" font-family="sans-serif" font-size="13" lengthAdjust="spacing" textLength="70" x="347" y="223.895">get invoice</text><polygon fill="#181818" points="525,254.0938,535,258.0938,525,262.0938,529,258.0938" style="stroke:#181818;stroke-width:1.0;"/><line style="stroke:#181818;stroke-width:1.0;" x1="330" x2="531" y1="258.0938" y2="258.0938"/><text fill="#000000" font-family="sans-serif" font-size="13" lengthAdjust="spacing" textLength="45" x="337" y="253.0278">invoice</text><polygon fill="#181818" points="666,283.2266,676,287.2266,666,291.2266,670,287.2266" style="stroke:#181818;stroke-width:1.0;"/><line style="stroke:#181818;stroke-width:1.0;" x1="537" x2="672" y1="287.2266" y2="287.2266"/><text fill="#000000" font-family="sans-serif" font-size="13" lengthAdjust="spacing" textLength="45" x="544" y="282.1606">invoice</text><polygon fill="#181818" points="882,312.3594,892,316.3594,882,320.3594,886,316.3594" style="stroke:#181818;stroke-width:1.0;"/><line style="stroke:#181818;stroke-width:1.0;" x1="678" x2="888" y1="316.3594" y2="316.3594"/><text fill="#000000" font-family="sans-serif" font-size="13" lengthAdjust="spacing" textLength="108" x="685" y="311.2935">invoice string/QR</text><polygon fill="#181818" points="991,341.4922,1001,345.4922,991,349.4922,995,345.4922" style="stroke:#181818;stroke-width:1.0;"/><line style="stroke:#181818;stroke-width:1.0;" x1="894" x2="997" y1="345.4922" y2="345.4922"/><text fill="#000000" font-family="sans-serif" font-size="13" lengthAdjust="spacing" textLength="85" x="901" y="340.4263">share invoice</text><polygon fill="#181818" points="1158,370.625,1168,374.625,1158,378.625,1162,374.625" style="stroke:#181818;stroke-width:1.0;"/><line style="stroke:#181818;stroke-width:1.0;" x1="1003" x2="1164" y1="374.625" y2="374.625"/><text fill="#000000" font-family="sans-serif" font-size="13" lengthAdjust="spacing" textLength="119" x="1010" y="369.5591">scan/paste invoice</text><polygon fill="#181818" points="1325,399.7578,1335,403.7578,1325,407.7578,1329,403.7578" style="stroke:#181818;stroke-width:1.0;"/><line style="stroke:#181818;stroke-width:1.0;" x1="1170" x2="1331" y1="403.7578" y2="403.7578"/><text fill="#000000" font-family="sans-serif" font-size="13" lengthAdjust="spacing" textLength="96" x="1177" y="398.6919">decode invoice</text><polygon fill="#181818" points="1600,428.8906,1610,432.8906,1600,436.8906,1604,432.8906" style="stroke:#181818;stroke-width:1.0;"/><line style="stroke:#181818;stroke-width:1.0;" x1="1337" x2="1606" y1="432.8906" y2="432.8906"/><text fill="#000000" font-family="sans-serif" font-size="13" lengthAdjust="spacing" textLength="85" x="1344" y="427.8247">parse invoice</text><polygon fill="#181818" points="1348,458.0234,1338,462.0234,1348,466.0234,1344,462.0234" style="stroke:#181818;stroke-width:1.0;"/><line style="stroke:#181818;stroke-width:1.0;" x1="1342" x2="1611" y1="462.0234" y2="462.0234"/><text fill="#000000" font-family="sans-serif" font-size="13" lengthAdjust="spacing" textLength="104" x="1354" y="456.9575">decoded invoice</text><polygon fill="#181818" points="1181,487.1563,1171,491.1563,1181,495.1563,1177,491.1563" style="stroke:#181818;stroke-width:1.0;"/><line style="stroke:#181818;stroke-width:1.0;" x1="1175" x2="1336" y1="491.1563" y2="491.1563"/><text fill="#000000" font-family="sans-serif" font-size="13" lengthAdjust="spacing" textLength="104" x="1187" y="486.0903">decoded invoice</text><polygon fill="#181818" points="1014,516.2891,1004,520.2891,1014,524.2891,1010,520.2891" style="stroke:#181818;stroke-width:1.0;"/><line style="stroke:#181818;stroke-width:1.0;" x1="1008" x2="1169" y1="520.2891" y2="520.2891"/><text fill="#000000" font-family="sans-serif" font-size="13" lengthAdjust="spacing" textLength="134" x="1020" y="515.2231">confirmation request</text><polygon fill="#181818" points="1158,545.4219,1168,549.4219,1158,553.4219,1162,549.4219" style="stroke:#181818;stroke-width:1.0;"/><line style="stroke:#181818;stroke-width:1.0;" x1="1003" x2="1164" y1="549.4219" y2="549.4219"/><text fill="#000000" font-family="sans-serif" font-size="13" lengthAdjust="spacing" textLength="143" x="1010" y="544.356">payment confirmation</text><polygon fill="#181818" points="1325,574.5547,1335,578.5547,1325,582.5547,1329,578.5547" style="stroke:#181818;stroke-width:1.0;"/><line style="stroke:#181818;stroke-width:1.0;" x1="1170" x2="1331" y1="578.5547" y2="578.5547"/><text fill="#000000" font-family="sans-serif" font-size="13" lengthAdjust="spacing" textLength="143" x="1177" y="573.4888">payment confirmation</text><polygon fill="#181818" points="1600,603.6875,1610,607.6875,1600,611.6875,1604,607.6875" style="stroke:#181818;stroke-width:1.0;"/><line style="stroke:#181818;stroke-width:1.0;" x1="1337" x2="1606" y1="607.6875" y2="607.6875"/><text fill="#000000" font-family="sans-serif" font-size="13" lengthAdjust="spacing" textLength="98" x="1344" y="602.6216">get asset TXOs</text><polygon fill="#181818" points="1348,632.8203,1338,636.8203,1348,640.8203,1344,636.8203" style="stroke:#181818;stroke-width:1.0;"/><line style="stroke:#181818;stroke-width:1.0;" x1="1342" x2="1611" y1="636.8203" y2="636.8203"/><text fill="#000000" font-family="sans-serif" font-size="13" lengthAdjust="spacing" textLength="95" x="1354" y="631.7544">asset TXOs list</text><polygon fill="#181818" points="1718,661.9531,1728,665.9531,1718,669.9531,1722,665.9531" style="stroke:#181818;stroke-width:1.0;"/><line style="stroke:#181818;stroke-width:1.0;" x1="1337" x2="1724" y1="665.9531" y2="665.9531"/><text fill="#000000" font-family="sans-serif" font-size="13" lengthAdjust="spacing" textLength="90" x="1344" y="660.8872">get UTXOs list</text><polygon fill="#181818" points="1348,691.0859,1338,695.0859,1348,699.0859,1344,695.0859" style="stroke:#181818;stroke-width:1.0;"/><line style="stroke:#181818;stroke-width:1.0;" x1="1342" x2="1729" y1="695.0859" y2="695.0859"/><text fill="#000000" font-family="sans-serif" font-size="13" lengthAdjust="spacing" textLength="65" x="1354" y="690.02">UTXOs list</text><line style="stroke:#181818;stroke-width:1.0;" x1="1337" x2="1379" y1="724.2188" y2="724.2188"/><line style="stroke:#181818;stroke-width:1.0;" x1="1379" x2="1379" y1="724.2188" y2="737.2188"/><line style="stroke:#181818;stroke-width:1.0;" x1="1338" x2="1379" y1="737.2188" y2="737.2188"/><polygon fill="#181818" points="1348,733.2188,1338,737.2188,1348,741.2188,1344,737.2188" style="stroke:#181818;stroke-width:1.0;"/><text fill="#000000" font-family="sans-serif" font-size="13" lengthAdjust="spacing" textLength="114" x="1344" y="719.1528">get asset balance</text><line style="stroke:#181818;stroke-width:1.0;" x1="1337" x2="1379" y1="766.3516" y2="766.3516"/><line style="stroke:#181818;stroke-width:1.0;" x1="1379" x2="1379" y1="766.3516" y2="779.3516"/><line style="stroke:#181818;stroke-width:1.0;" x1="1338" x2="1379" y1="779.3516" y2="779.3516"/><polygon fill="#181818" points="1348,775.3516,1338,779.3516,1348,783.3516,1344,779.3516" style="stroke:#181818;stroke-width:1.0;"/><text fill="#000000" font-family="sans-serif" font-size="13" lengthAdjust="spacing" textLength="87" x="1344" y="761.2856">coin selection</text><line style="stroke:#181818;stroke-width:1.0;" x1="1337" x2="1379" y1="808.4844" y2="808.4844"/><line style="stroke:#181818;stroke-width:1.0;" x1="1379" x2="1379" y1="808.4844" y2="821.4844"/><line style="stroke:#181818;stroke-width:1.0;" x1="1338" x2="1379" y1="821.4844" y2="821.4844"/><polygon fill="#181818" points="1348,817.4844,1338,821.4844,1348,825.4844,1344,821.4844" style="stroke:#181818;stroke-width:1.0;"/><text fill="#000000" font-family="sans-serif" font-size="13" lengthAdjust="spacing" textLength="88" x="1344" y="803.4185">PSBT creation</text><polygon fill="#181818" points="1600,846.6172,1610,850.6172,1600,854.6172,1604,850.6172" style="stroke:#181818;stroke-width:1.0;"/><line style="stroke:#181818;stroke-width:1.0;" x1="1337" x2="1606" y1="850.6172" y2="850.6172"/><text fill="#000000" font-family="sans-serif" font-size="13" lengthAdjust="spacing" textLength="32" x="1344" y="845.5513">PSBT</text><polygon fill="#181818" points="1348,875.75,1338,879.75,1348,883.75,1344,879.75" style="stroke:#181818;stroke-width:1.0;"/><line style="stroke:#181818;stroke-width:1.0;" x1="1342" x2="1611" y1="879.75" y2="879.75"/><text fill="#000000" font-family="sans-serif" font-size="13" lengthAdjust="spacing" textLength="251" x="1354" y="874.6841">PSBT with commitment state transition</text><polygon fill="#181818" points="1600,904.8828,1610,908.8828,1600,912.8828,1604,908.8828" style="stroke:#181818;stroke-width:1.0;"/><line style="stroke:#181818;stroke-width:1.0;" x1="1337" x2="1606" y1="908.8828" y2="908.8828"/><text fill="#000000" font-family="sans-serif" font-size="13" lengthAdjust="spacing" textLength="141" x="1344" y="903.8169">get consignment data</text><polygon fill="#181818" points="1348,934.0156,1338,938.0156,1348,942.0156,1344,938.0156" style="stroke:#181818;stroke-width:1.0;"/><line style="stroke:#181818;stroke-width:1.0;" x1="1342" x2="1611" y1="938.0156" y2="938.0156"/><text fill="#000000" font-family="sans-serif" font-size="13" lengthAdjust="spacing" textLength="116" x="1354" y="932.9497">consignment data</text><polygon fill="#181818" points="548,963.1484,538,967.1484,548,971.1484,544,967.1484" style="stroke:#181818;stroke-width:1.0;"/><line style="stroke:#181818;stroke-width:1.0;" x1="542" x2="1336" y1="967.1484" y2="967.1484"/><text fill="#000000" font-family="sans-serif" font-size="13" lengthAdjust="spacing" textLength="367" x="554" y="962.0825">send consignment to payee (with Proxy Server or Storm)</text><polygon fill="#181818" points="341,992.2813,331,996.2813,341,1000.2813,337,996.2813" style="stroke:#181818;stroke-width:1.0;"/><line style="stroke:#181818;stroke-width:1.0;" x1="335" x2="536" y1="996.2813" y2="996.2813"/><text fill="#000000" font-family="sans-serif" font-size="13" lengthAdjust="spacing" textLength="138" x="347" y="991.2153">validate consignment</text><polygon fill="#181818" points="81,1021.4141,71,1025.4141,81,1029.4141,77,1025.4141" style="stroke:#181818;stroke-width:1.0;"/><line style="stroke:#181818;stroke-width:1.0;" x1="75" x2="329" y1="1025.4141" y2="1025.4141"/><text fill="#000000" font-family="sans-serif" font-size="13" lengthAdjust="spacing" textLength="236" x="87" y="1020.3481">check bitcoin txs confirmation status</text><polygon fill="#181818" points="318,1050.5469,328,1054.5469,318,1058.5469,322,1054.5469" style="stroke:#181818;stroke-width:1.0;"/><line style="stroke:#181818;stroke-width:1.0;" x1="70" x2="324" y1="1054.5469" y2="1054.5469"/><text fill="#000000" font-family="sans-serif" font-size="13" lengthAdjust="spacing" textLength="195" x="77" y="1049.481">bitcoin txs confirmation status</text><polygon fill="#181818" points="525,1079.6797,535,1083.6797,525,1087.6797,529,1083.6797" style="stroke:#181818;stroke-width:1.0;"/><line style="stroke:#181818;stroke-width:1.0;" x1="330" x2="531" y1="1083.6797" y2="1083.6797"/><text fill="#000000" font-family="sans-serif" font-size="13" lengthAdjust="spacing" textLength="105" x="337" y="1078.6138">validation report</text><polygon fill="#181818" points="1325,1108.8125,1335,1112.8125,1325,1116.8125,1329,1112.8125" style="stroke:#181818;stroke-width:1.0;"/><line style="stroke:#181818;stroke-width:1.0;" x1="537" x2="1331" y1="1112.8125" y2="1112.8125"/><text fill="#000000" font-family="sans-serif" font-size="13" lengthAdjust="spacing" textLength="276" x="544" y="1107.7466">ACK that the provided consignment is valid</text><line style="stroke:#181818;stroke-width:1.0;" x1="1337" x2="1379" y1="1141.9453" y2="1141.9453"/><line style="stroke:#181818;stroke-width:1.0;" x1="1379" x2="1379" y1="1141.9453" y2="1154.9453"/><line style="stroke:#181818;stroke-width:1.0;" x1="1338" x2="1379" y1="1154.9453" y2="1154.9453"/><polygon fill="#181818" points="1348,1150.9453,1338,1154.9453,1348,1158.9453,1344,1154.9453" style="stroke:#181818;stroke-width:1.0;"/><text fill="#000000" font-family="sans-serif" font-size="13" lengthAdjust="spacing" textLength="62" x="1344" y="1136.8794">sign PSBT</text><polygon fill="#181818" points="1718,1180.0781,1728,1184.0781,1718,1188.0781,1722,1184.0781" style="stroke:#181818;stroke-width:1.0;"/><line style="stroke:#181818;stroke-width:1.0;" x1="1337" x2="1724" y1="1184.0781" y2="1184.0781"/><text fill="#000000" font-family="sans-serif" font-size="13" lengthAdjust="spacing" textLength="186" x="1344" y="1179.0122">broadcast Bitcoin transaction</text><polygon fill="#181818" points="1181,1209.2109,1171,1213.2109,1181,1217.2109,1177,1213.2109" style="stroke:#181818;stroke-width:1.0;"/><line style="stroke:#181818;stroke-width:1.0;" x1="1175" x2="1336" y1="1213.2109" y2="1213.2109"/><text fill="#000000" font-family="sans-serif" font-size="13" lengthAdjust="spacing" textLength="130" x="1187" y="1208.145">tx sent confirmation</text><polygon fill="#181818" points="1014,1238.3438,1004,1242.3438,1014,1246.3438,1010,1242.3438" style="stroke:#181818;stroke-width:1.0;"/><line style="stroke:#181818;stroke-width:1.0;" x1="1008" x2="1169" y1="1242.3438" y2="1242.3438"/><text fill="#000000" font-family="sans-serif" font-size="13" lengthAdjust="spacing" textLength="130" x="1020" y="1237.2778">tx sent confirmation</text><polygon fill="#181818" points="525,1267.4766,535,1271.4766,525,1275.4766,529,1271.4766" style="stroke:#181818;stroke-width:1.0;"/><line style="stroke:#181818;stroke-width:1.0;" x1="70" x2="531" y1="1271.4766" y2="1271.4766"/><text fill="#000000" font-family="sans-serif" font-size="13" lengthAdjust="spacing" textLength="187" x="77" y="1266.4106">bitcoin transaction confirmed</text><polygon fill="#181818" points="341,1296.6094,331,1300.6094,341,1304.6094,337,1300.6094" style="stroke:#181818;stroke-width:1.0;"/><line style="stroke:#181818;stroke-width:1.0;" x1="335" x2="536" y1="1300.6094" y2="1300.6094"/><text fill="#000000" font-family="sans-serif" font-size="13" lengthAdjust="spacing" textLength="110" x="347" y="1295.5435">extract outpoints</text><polygon fill="#181818" points="525,1325.7422,535,1329.7422,525,1333.7422,529,1329.7422" style="stroke:#181818;stroke-width:1.0;"/><line style="stroke:#181818;stroke-width:1.0;" x1="330" x2="531" y1="1329.7422" y2="1329.7422"/><text fill="#000000" font-family="sans-serif" font-size="13" lengthAdjust="spacing" textLength="77" x="337" y="1324.6763">blind UTXOs</text><polygon fill="#181818" points="341,1354.875,331,1358.875,341,1362.875,337,1358.875" style="stroke:#181818;stroke-width:1.0;"/><line style="stroke:#181818;stroke-width:1.0;" x1="335" x2="536" y1="1358.875" y2="1358.875"/><text fill="#000000" font-family="sans-serif" font-size="13" lengthAdjust="spacing" textLength="93" x="347" y="1353.8091">blinding secret</text><line style="stroke:#181818;stroke-width:1.0;" x1="330" x2="372" y1="1388.0078" y2="1388.0078"/><line style="stroke:#181818;stroke-width:1.0;" x1="372" x2="372" y1="1388.0078" y2="1401.0078"/><line style="stroke:#181818;stroke-width:1.0;" x1="331" x2="372" y1="1401.0078" y2="1401.0078"/><polygon fill="#181818" points="341,1397.0078,331,1401.0078,341,1405.0078,337,1401.0078" style="stroke:#181818;stroke-width:1.0;"/><text fill="#000000" font-family="sans-serif" font-size="13" lengthAdjust="spacing" textLength="193" x="337" y="1382.9419">blinding secret added to stash</text><polygon fill="#181818" points="525,1426.1406,535,1430.1406,525,1434.1406,529,1430.1406" style="stroke:#181818;stroke-width:1.0;"/><line style="stroke:#181818;stroke-width:1.0;" x1="330" x2="531" y1="1430.1406" y2="1430.1406"/><text fill="#000000" font-family="sans-serif" font-size="13" lengthAdjust="spacing" textLength="138" x="337" y="1425.0747">asset balance update</text><polygon fill="#181818" points="666,1455.2734,676,1459.2734,666,1463.2734,670,1459.2734" style="stroke:#181818;stroke-width:1.0;"/><line style="stroke:#181818;stroke-width:1.0;" x1="537" x2="672" y1="1459.2734" y2="1459.2734"/><text fill="#000000" font-family="sans-serif" font-size="13" lengthAdjust="spacing" textLength="117" x="544" y="1454.2075">payment received</text><polygon fill="#181818" points="882,1484.4063,892,1488.4063,882,1492.4063,886,1488.4063" style="stroke:#181818;stroke-width:1.0;"/><line style="stroke:#181818;stroke-width:1.0;" x1="678" x2="888" y1="1488.4063" y2="1488.4063"/><text fill="#000000" font-family="sans-serif" font-size="13" lengthAdjust="spacing" textLength="192" x="685" y="1483.3403">payment received notification</text><!--SRC=[ZLHDRnCn4BtlhnZb0XnGrJroGAAeGXKIbAPHkSvwtSPYOo_s9AJ_dXbxl-o4qXoYPDvyl7apunuz6MLwj0IhpSqACC3cvhBgb_O7x3fDe9mbx_YdZsuFdmktkozNyCsrEgByfu2lEwt8xtUmrlumvBXUNrQvryIXVXs7-cKEzMiur5NLk2EiRl5PwpUSDTPQLS2VPRYmBMsnpz8eqfGsKLNR5hXILQ4Yvo7MM_xn2oB-1IAYpcdD-Xov-amNzKmaKe3t7uKUV03bDP86Om_EA5s9aJ5kXx4dbdy4nC802p80U43JOTDfsDp__1ugGQP8CK5d0ern8bgHCPgcYA9E8bUmIjGdCmJonZvT_BYRcuewialOef-xIjQOjXPGeRteCMHzrucBuArMl50BIlNGWe0iRD3B9au2sp8oLIt1eUJ8cFVyqVWTad4MlFwzrwnUGRp7vvssbFdcrCzwv0t4uON0tt5kUGSpC8wlJcCV8pSp9iOfS7CIa-npjGOxjBCe2LREM0XQZdJ1D66twwlxj9-dJGXMK8_kVmnjEUbkPoZg44YscppQOFwX1KiLp9EDxYqI5cbFu8cZR6YGkrgwa9CPy3A-ZLHklJi-3syFyCsl-V1txughE61dMk6vI3ITHxeujTNg5pI6ec1q3Fc-I9lxwGQ7jF_ppWzm896shtT-EjqamwVFNu6so0rkDVJU7Opiyh9p4rAEV8W2fsbbgzHuXwtY4uIhaQNC2BCrI4jFHr7v_DAFntFM9tkHcjCoexTkYtde8tif0hUddcEebAhf34yzFNjvP4JuJM8slBZp4C_3WAs8o2l34mdReafsDR3lPKFovt4yTg-LDWTketWdInoi8_DeL9JdBm00]--></g></svg>